HIERARCHY
ROOT Hips
{
  OFFSET 52.5838 91.7977 4.54505
  CHANNELS 6 Xposition Yposition Zposition Zrotation Xrotation Yrotation
  JOINT spine
  {
    OFFSET 0 6.84637 0.3937
    CHANNELS 3 Zrotation Xrotation Yrotation
    JOINT spine1
    {
      OFFSET 0 9.49621 0
      CHANNELS 3 Zrotation Xrotation Yrotation
      JOINT spine2
      {
        OFFSET 0 9.09909 0
        CHANNELS 3 Zrotation Xrotation Yrotation
        JOINT Neck
        {
          OFFSET 0 23.3612 1.11378
          CHANNELS 3 Zrotation Xrotation Yrotation
          JOINT Head
          {
            OFFSET 0 7.05802 0
            CHANNELS 3 Zrotation Xrotation Yrotation
            End Site
            {
              OFFSET 0 17.0844 -5.63419
            }
          }
        }
        JOINT RightShoulder
        {
          OFFSET -3.83136 9.82631 -0.533491
          CHANNELS 3 Zrotation Xrotation Yrotation
          JOINT RightArm
          {
            OFFSET 0 12.8881 0
            CHANNELS 3 Zrotation Xrotation Yrotation
            JOINT RightArmRoll
            {
              OFFSET 0 6.50617 0
              CHANNELS 3 Zrotation Xrotation Yrotation
              JOINT RightForeArm
              {
                OFFSET 0 18.9501 0
                CHANNELS 3 Zrotation Xrotation Yrotation
                JOINT RightForeArmRoll
                {
                  OFFSET 0 7.30092 0
                  CHANNELS 3 Zrotation Xrotation Yrotation
                  JOINT RightHand
                  {
                    OFFSET 0 14.6514 0
                    CHANNELS 3 Zrotation Xrotation Yrotation
                    End Site
                    {
                      OFFSET 0 0 0
                    }
                  }
                }
              }
            }
          }
        }
        JOINT LeftShoulder
        {
          OFFSET 3.83136 9.82631 -0.533491
          CHANNELS 3 Zrotation Xrotation Yrotation
          JOINT LeftArm
          {
            OFFSET 0 12.8881 0
            CHANNELS 3 Zrotation Xrotation Yrotation
            JOINT LeftArmRoll
            {
              OFFSET 0 6.50617 0
              CHANNELS 3 Zrotation Xrotation Yrotation
              JOINT LeftForeArm
              {
                OFFSET 0 18.9501 0
                CHANNELS 3 Zrotation Xrotation Yrotation
                JOINT LeftForeArmRoll
                {
                  OFFSET 0 7.30093 0
                  CHANNELS 3 Zrotation Xrotation Yrotation
                  JOINT LeftHand
                  {
                    OFFSET 0 14.6514 0
                    CHANNELS 3 Zrotation Xrotation Yrotation
                    End Site
                    {
                      OFFSET 0 0 0
                    }
                  }
                }
              }
            }
          }
        }
      }
    }
  }
  JOINT RightUpLeg
  {
    OFFSET -6.06837 -1.11278 -0.933477
    CHANNELS 3 Zrotation Xrotation Yrotation
    JOINT RightUpLegRoll
    {
      OFFSET 0 17.1796 0
      CHANNELS 3 Zrotation Xrotation Yrotation
      JOINT RightLeg
      {
        OFFSET 0 -21.2743 0
        CHANNELS 3 Zrotation Xrotation Yrotation
        JOINT RightLegRoll
        {
          OFFSET 0 21.3439 0
          CHANNELS 3 Zrotation Xrotation Yrotation
          JOINT RightFoot
          {
            OFFSET 0 17.7652 0
            CHANNELS 3 Zrotation Xrotation Yrotation
            JOINT RightToeBase
            {
              OFFSET 0 14.8508 0
              CHANNELS 3 Zrotation Xrotation Yrotation
              End Site
              {
                OFFSET 0.0062947 7.19214 -0.829005
              }
            }
          }
        }
      }
    }
  }
  JOINT LeftUpLeg
  {
    OFFSET 6.06837 -1.11278 -0.933477
    CHANNELS 3 Zrotation Xrotation Yrotation
    JOINT LeftUpLegRoll
    {
      OFFSET 0 17.1797 0
      CHANNELS 3 Zrotation Xrotation Yrotation
      JOINT LeftLeg
      {
        OFFSET 0 21.2742 0
        CHANNELS 3 Zrotation Xrotation Yrotation
        JOINT LeftLegRoll
        {
          OFFSET 0 21.5412 0
          CHANNELS 3 Zrotation Xrotation Yrotation
          JOINT LeftFoot
          {
            OFFSET 0 17.5679 0
            CHANNELS 3 Zrotation Xrotation Yrotation
            JOINT LeftToeBase
            {
              OFFSET 0 14.8508 0
              CHANNELS 3 Zrotation Xrotation Yrotation
              End Site
              {
                OFFSET -0.0282102 7.19214 -0.829005
              }
            }
          }
        }
      }
    }
  }
}
MOTION
Frames: 11
Frame Time: 0.00208333
53.8136 91.3023 4.3706 -4.49183 3.28129 16.8833 -0.428833 -1.96277 0.840701 -0.836408 0.0710648 1.7222 -0.857344 1.71572 1.73669 -19.1085 15.9926 -0.803157 27.3664 -1.64509 -4.19281 34.3268 1.74487 5.2881 53.4779 74.1514 51.1533 -9.68487e-006 -7.59773e-007 -7.13843e-006 -1.86912 14.1208 -0.925399 -1.93122e-006 5.93722e-006 -3.00212 8.02887 -4.95145 0.697704 -62.3352 -15.2634 9.37117 -105.741 -2.38938 32.2397 -5.90463e-007 1.34958e-008 3.24411e-006 159.941 58.9445 -133.469 1.41244e-005 -4.23928e-006 3 -8.02901 -4.95142 -0.697699 -178.618 3.83974 -2.62803 180 7.01571e-015 179.035 178.688 5.82753 179.882 -3.05901e-007 -6.6868e-007 0.0258188 -18.1506 67.2776 18.9529 8.13648 25.2327 -3.48773 -170.191 15.4855 -2.14939 4.54188e-006 -4.6773e-006 -0.840949 -1.06827 -10.2156 0.248188 -2.31802e-006 -1.13788e-006 -0.174526 19.4771 69.0212 -20.4234 -8.1365 25.2327 3.48774 
53.8168 91.3048 4.35011 -4.44987 3.25365 16.6357 -0.421715 -1.96784 0.836714 -0.822245 0.0610557 1.71351 -0.843068 1.70572 1.72776 -18.9527 16.1285 -0.75994 27.1417 -1.72013 -4.1241 34.5206 1.75428 5.25741 53.6791 74.1838 50.8115 -9.68487e-006 -7.59773e-007 -7.13843e-006 -1.73264 14.5804 -0.93926 -1.93122e-006 5.93722e-006 -3.0021 8.02887 -4.95145 0.697704 -62.1778 -15.2342 9.36326 -105.785 -1.75568 32.2724 -5.90463e-007 1.34958e-008 3.24411e-006 159.939 59.0763 -133.649 1.41244e-005 -4.23928e-006 3 -8.02901 -4.95142 -0.697699 -178.663 3.83379 -2.6038 180 7.01571e-015 179.034 178.693 5.83892 179.882 -3.05901e-007 -6.6868e-007 0.025643 -18.1467 67.2713 18.9481 8.13648 25.2327 -3.48773 -170.196 15.3752 -2.16152 4.54188e-006 -4.6773e-006 -0.842954 -1.08618 -10.2035 0.245517 -2.31802e-006 -1.13788e-006 -0.173932 19.4719 69.0146 -20.4177 -8.1365 25.2327 3.48774 
53.8427 91.3128 4.34171 -4.40782 3.22546 16.3871 -0.414479 -1.97276 0.83278 -0.807836 0.0513523 1.70493 -0.828549 1.69602 1.71892 -18.7976 16.2658 -0.716539 26.9165 -1.79568 -4.05551 34.712 1.76113 5.22494 53.9015 74.2153 50.4505 -9.68487e-006 -7.59773e-007 -7.13843e-006 -1.59607 15.0446 -0.954123 -1.93122e-006 5.93722e-006 -3.00209 8.02887 -4.95145 0.697704 -62.0234 -15.2017 9.35319 -105.827 -1.10871 32.2871 -5.90463e-007 1.34958e-008 3.24411e-006 159.941 59.2115 -133.844 1.41244e-005 -4.23928e-006 3 -8.02901 -4.95142 -0.697699 -178.708 3.82726 -2.57946 180 7.01571e-015 179.033 178.699 5.84969 179.881 -3.05901e-007 -6.6868e-007 0.0254597 -18.143 67.2649 18.9434 8.13648 25.2327 -3.48773 -170.201 15.2645 -2.17328 4.54188e-006 -4.6773e-006 -0.844974 -1.10397 -10.1913 0.242866 -2.31802e-006 -1.13788e-006 -0.173336 19.4666 69.0079 -20.4119 -8.1365 25.2327 3.48774 
53.8618 91.3192 4.34673 -4.36585 3.197 16.1375 -0.407185 -1.97756 0.828844 -0.793302 0.041892 1.69633 -0.813904 1.68657 1.71008 -18.6421 16.4032 -0.673278 26.6903 -1.87088 -3.9871 34.9008 1.76504 5.19037 54.1477 74.2466 50.0689 -9.68487e-006 -7.59773e-007 -7.13843e-006 -1.45987 15.5142 -0.969956 -1.93122e-006 5.93722e-006 -3.00208 8.02887 -4.95145 0.697704 -61.8716 -15.1664 9.34123 -105.87 -0.448816 32.2836 -5.90463e-007 1.34958e-008 3.24411e-006 159.945 59.3501 -134.051 1.41244e-005 -4.23928e-006 3 -8.02901 -4.95142 -0.697699 -178.754 3.82038 -2.55514 180 7.01571e-015 179.032 178.704 5.8597 179.88 -3.05901e-007 -6.6868e-007 0.0252695 -18.1392 67.2587 18.9388 8.13648 25.2327 -3.48773 -170.207 15.1536 -2.18482 4.54188e-006 -4.6773e-006 -0.847003 -1.1217 -10.1791 0.240242 -2.31802e-006 -1.13788e-006 -0.172744 19.4612 69.0011 -20.406 -8.1365 25.2327 3.48774 
53.8828 91.3241 4.33107 -4.32413 3.16853 15.8869 -0.399894 -1.98227 0.824847 -0.778764 0.0326123 1.68761 -0.799254 1.67729 1.70111 -18.4852 16.5397 -0.630482 26.4622 -1.94488 -3.91889 35.087 1.76562 5.15342 54.4202 74.2778 49.6652 -9.68487e-006 -7.59773e-007 -7.13843e-006 -1.32452 15.9896 -0.986727 -1.93122e-006 5.93722e-006 -3.00206 8.02887 -4.95145 0.697704 -61.722 -15.1289 9.32769 -105.914 0.223714 32.2618 -5.90463e-007 1.34958e-008 3.24411e-006 159.95 59.4921 -134.268 1.41244e-005 -4.23928e-006 3 -8.02901 -4.95142 -0.697699 -178.799 3.81335 -2.53097 180 7.01571e-015 179.031 178.71 5.86882 179.88 -3.05901e-007 -6.6868e-007 0.0250729 -18.1356 67.2526 18.9342 8.13648 25.2327 -3.48773 -170.213 15.043 -2.19628 4.54188e-006 -4.6773e-006 -0.849032 -1.13946 -10.1671 0.237649 -2.31802e-006 -1.13788e-006 -0.172159 19.4557 68.9942 -20.4 -8.1365 25.2327 3.48774 
53.9135 91.3321 4.33926 -4.28284 3.14034 15.6355 -0.392669 -1.98692 0.820733 -0.764343 0.0234507 1.67866 -0.784719 1.66814 1.69192 -18.3256 16.6741 -0.588478 26.2317 -2.01682 -3.85093 35.2704 1.76248 5.11379 54.7216 74.3093 49.238 -9.68487e-006 -7.59773e-007 -7.13843e-006 -1.19049 16.4716 -1.00441 -1.93122e-006 5.93722e-006 -3.00205 8.02887 -4.95145 0.697704 -61.5742 -15.0897 9.31284 -105.959 0.908602 32.2214 -5.90463e-007 1.34958e-008 3.24411e-006 159.954 59.6374 -134.492 1.41244e-005 -4.23928e-006 3 -8.02901 -4.95142 -0.697699 -178.844 3.8064 -2.50706 180 7.0157e-015 179.03 178.715 5.87696 179.879 -3.05901e-007 -6.6868e-007 0.0248708 -18.1319 67.2466 18.9297 8.13648 25.2327 -3.48773 -170.218 14.9329 -2.20778 4.54188e-006 -4.6773e-006 -0.851055 -1.15729 -10.1553 0.235093 -2.31802e-006 -1.13788e-006 -0.171586 19.4502 68.9872 -20.394 -8.1365 25.2327 3.48774 
53.9342 91.3341 4.32628 -4.24214 3.11271 15.3831 -0.385571 -1.99154 0.816444 -0.75016 0.0143446 1.66938 -0.770418 1.65904 1.68239 -18.1621 16.8053 -0.547596 25.9981 -2.08584 -3.78324 35.4509 1.75524 5.07118 55.0547 74.3415 48.7857 -9.68487e-006 -7.59773e-007 -7.13843e-006 -1.05826 16.9608 -1.02296 -1.93122e-006 5.93722e-006 -3.00204 8.02887 -4.95145 0.697704 -61.4278 -15.0492 9.29696 -106.007 1.6056 32.1623 -5.90463e-007 1.34958e-008 3.24411e-006 159.957 59.7861 -134.723 1.41244e-005 -4.23928e-006 3 -8.02901 -4.95142 -0.697699 -178.889 3.79973 -2.48356 180 7.0157e-015 179.03 178.721 5.88397 179.878 -3.05901e-007 -6.6868e-007 0.0246635 -18.1283 67.2407 18.9253 8.13648 25.2327 -3.48773 -170.224 14.8238 -2.21948 4.54188e-006 -4.6773e-006 -0.853065 -1.17528 -10.1438 0.23258 -2.31802e-006 -1.13788e-006 -0.171029 19.4447 68.9803 -20.3879 -8.1365 25.2327 3.48774 
53.9401 91.342 4.34586 -4.20217 3.08592 15.1299 -0.378662 -1.99617 0.811923 -0.736336 0.00523149 1.65965 -0.75647 1.64993 1.67243 -17.9936 16.9321 -0.508167 25.7606 -2.15107 -3.71588 35.6285 1.7435 5.02529 55.4221 74.3747 48.3067 -9.68487e-006 -7.59773e-007 -7.13843e-006 -0.928278 17.4578 -1.04237 -1.93122e-006 5.93722e-006 -3.00202 8.02887 -4.95145 0.697704 -61.2824 -15.0082 9.28033 -106.059 2.31448 32.0842 -5.90463e-007 1.34958e-008 3.24411e-006 159.955 59.9381 -134.958 1.41244e-005 -4.23928e-006 3 -8.02901 -4.95142 -0.697699 -178.933 3.79357 -2.46058 180 7.0157e-015 179.029 178.727 5.88977 179.877 -3.05901e-007 -6.6868e-007 0.0244518 -18.1247 67.2349 18.9209 8.13648 25.2327 -3.48773 -170.23 14.716 -2.2315 4.54188e-006 -4.6773e-006 -0.855054 -1.19349 -10.1327 0.230115 -2.31802e-006 -1.13788e-006 -0.170492 19.4392 68.9734 -20.3819 -8.1365 25.2327 3.48774 
53.9643 91.3462 4.33455 -4.16311 3.06024 14.8758 -0.372003 -2.00082 0.807113 -0.722992 -0.00395114 1.64937 -0.742996 1.64076 1.66192 -17.8189 17.0533 -0.470523 25.5187 -2.21166 -3.64888 35.803 1.72689 4.97582 55.8266 74.4091 47.7994 -9.68487e-006 -7.59773e-007 -7.13843e-006 -0.801032 17.9632 -1.0626 -1.93122e-006 5.93722e-006 -3.00201 8.02887 -4.95145 0.697704 -61.1376 -14.967 9.26325 -106.114 3.03505 31.9867 -5.90463e-007 1.34958e-008 3.24411e-006 159.948 60.0936 -135.195 1.41244e-005 -4.23928e-006 3 -8.02901 -4.95142 -0.697699 -178.977 3.78812 -2.43826 180 7.0157e-015 179.028 178.733 5.89421 179.877 -3.05901e-007 -6.6868e-007 0.0242363 -18.1211 67.2291 18.9165 8.13648 25.2327 -3.48773 -170.234 14.6098 -2.244 4.54188e-006 -4.6773e-006 -0.857016 -1.21199 -10.122 0.227704 -2.31802e-006 -1.13788e-006 -0.169978 19.4338 68.9666 -20.376 -8.1365 25.2327 3.48774 
54.0019 91.3502 4.31293 -4.12509 3.03597 14.6208 -0.365657 -2.00554 0.801956 -0.71025 -0.0132658 1.63843 -0.730116 1.63145 1.65075 -17.6368 17.1679 -0.434997 25.2715 -2.26675 -3.58226 35.9743 1.70501 4.92249 56.2712 74.445 47.262 -9.68487e-006 -7.59773e-007 -7.13843e-006 -0.676985 18.4777 -1.08363 -1.93122e-006 5.93722e-006 -3.002 8.02887 -4.95145 0.697704 -60.9931 -14.9262 9.24598 -106.174 3.7671 31.8697 -5.90463e-007 1.34958e-008 3.24411e-006 159.934 60.2526 -135.432 1.41244e-005 -4.23928e-006 3 -8.02901 -4.95142 -0.697699 -179.02 3.78361 -2.41671 180 7.0157e-015 179.027 178.739 5.8972 179.876 -3.05901e-007 -6.6868e-007 0.0240176 -18.1175 67.2235 18.9122 8.13648 25.2327 -3.48773 -170.239 14.5055 -2.2571 4.54188e-006 -4.6773e-006 -0.858942 -1.23085 -10.112 0.225352 -2.31802e-006 -1.13788e-006 -0.169493 19.4284 68.96 -20.3701 -8.1365 25.2327 3.48774 
54.0138 91.3534 4.31415 -4.08814 3.01244 14.3652 -0.359463 -2.01023 0.796553 -0.697763 -0.0225031 1.62701 -0.717487 1.62222 1.63912 -17.4493 17.2777 -0.401214 25.0208 -2.3175 -3.51616 36.1411 1.67712 4.86472 56.7575 74.4821 46.6944 -9.68487e-006 -7.59773e-007 -7.13843e-006 -0.555879 19.0029 -1.10548 -1.93122e-006 5.93722e-006 -3.00198 8.02887 -4.95145 0.697704 -60.8503 -14.8842 9.22761 -106.228 4.51914 31.7339 -5.90463e-007 1.34958e-008 3.24411e-006 159.91 60.4187 -135.671 1.41244e-005 -4.23928e-006 3 -8.02901 -4.95142 -0.697699 -179.062 3.77825 -2.396 180 7.0157e-015 179.026 178.745 5.89761 179.875 -3.05901e-007 -6.6868e-007 0.0237918 -18.1139 67.218 18.9079 8.13648 25.2327 -3.48773 -170.242 14.4027 -2.27099 4.54188e-006 -4.6773e-006 -0.860854 -1.25009 -10.1023 0.223064 -2.31802e-006 -1.13788e-006 -0.169044 19.4228 68.9531 -20.364 -8.1365 25.2327 3.48774 
